%TF.GenerationSoftware,KiCad,Pcbnew,(5.1.9)-1*%
%TF.CreationDate,2021-12-13T23:40:31+01:00*%
%TF.ProjectId,e18sock,65313873-6f63-46b2-9e6b-696361645f70,rev?*%
%TF.SameCoordinates,Original*%
%TF.FileFunction,OtherDrawing,Comment*%
%FSLAX46Y46*%
G04 Gerber Fmt 4.6, Leading zero omitted, Abs format (unit mm)*
G04 Created by KiCad (PCBNEW (5.1.9)-1) date 2021-12-13 23:40:31*
%MOMM*%
%LPD*%
G01*
G04 APERTURE LIST*
%ADD10C,0.100000*%
G04 APERTURE END LIST*
D10*
%TO.C,E-18-MS1-PCB*%
X134770000Y-27870000D02*
X135320000Y-28420000D01*
X135320000Y-29420000D02*
X133770000Y-27870000D01*
X132770000Y-27870000D02*
X135320000Y-30420000D01*
X135320000Y-31420000D02*
X131770000Y-27870000D01*
X130770000Y-27870000D02*
X135320000Y-32420000D01*
X135270000Y-33370000D02*
X129770000Y-27870000D01*
X134270000Y-33370000D02*
X128770000Y-27870000D01*
X133270000Y-33370000D02*
X127770000Y-27870000D01*
X132270000Y-33370000D02*
X126770000Y-27870000D01*
X131270000Y-33370000D02*
X125770000Y-27870000D01*
X130270000Y-33370000D02*
X124770000Y-27870000D01*
X129270000Y-33370000D02*
X123770000Y-27870000D01*
X128270000Y-33370000D02*
X122770000Y-27870000D01*
X127270000Y-33370000D02*
X121770000Y-27870000D01*
X126270000Y-33370000D02*
X121220000Y-28320000D01*
X125270000Y-33370000D02*
X121220000Y-29320000D01*
X124270000Y-33370000D02*
X121220000Y-30320000D01*
X123270000Y-33370000D02*
X121220000Y-31320000D01*
X122270000Y-33370000D02*
X121220000Y-32320000D01*
X135320000Y-33370000D02*
X121220000Y-33370000D01*
X135320000Y-27870000D02*
X135320000Y-33370000D01*
X121220000Y-27870000D02*
X135320000Y-27870000D01*
X121220000Y-33370000D02*
X121220000Y-27870000D01*
%TD*%
M02*
