%TF.GenerationSoftware,KiCad,Pcbnew,(5.1.9)-1*%
%TF.CreationDate,2021-12-13T23:40:31+01:00*%
%TF.ProjectId,e18sock,65313873-6f63-46b2-9e6b-696361645f70,rev?*%
%TF.SameCoordinates,Original*%
%TF.FileFunction,Copper,L1,Top*%
%TF.FilePolarity,Positive*%
%FSLAX46Y46*%
G04 Gerber Fmt 4.6, Leading zero omitted, Abs format (unit mm)*
G04 Created by KiCad (PCBNEW (5.1.9)-1) date 2021-12-13 23:40:31*
%MOMM*%
%LPD*%
G01*
G04 APERTURE LIST*
%TA.AperFunction,ComponentPad*%
%ADD10O,1.700000X1.700000*%
%TD*%
%TA.AperFunction,SMDPad,CuDef*%
%ADD11R,2.000000X0.800000*%
%TD*%
%TA.AperFunction,SMDPad,CuDef*%
%ADD12R,0.800000X2.000000*%
%TD*%
%TA.AperFunction,ComponentPad*%
%ADD13R,1.700000X1.700000*%
%TD*%
%TA.AperFunction,Conductor*%
%ADD14C,0.250000*%
%TD*%
G04 APERTURE END LIST*
D10*
%TO.P, ,12*%
%TO.N,N/C*%
X139700000Y-35560000D03*
%TO.P, ,11*%
X139700000Y-38100000D03*
%TO.P, ,10*%
X139700000Y-40640000D03*
%TO.P, ,9*%
X139700000Y-43180000D03*
%TO.P, ,8*%
X139700000Y-45720000D03*
%TO.P, ,7*%
X139700000Y-48260000D03*
%TO.P, ,6*%
X139700000Y-50800000D03*
%TO.P, ,5*%
X139700000Y-53340000D03*
%TO.P, ,4*%
X139700000Y-55880000D03*
%TO.P, ,3*%
X139700000Y-58420000D03*
%TO.P, ,2*%
X139700000Y-60960000D03*
%TO.P, ,1*%
X139700000Y-63500000D03*
%TD*%
D11*
%TO.P,E-18-MS1-PCB,8*%
%TO.N,N/C*%
X121270000Y-48610000D03*
%TO.P,E-18-MS1-PCB,7*%
X121270000Y-47340000D03*
%TO.P,E-18-MS1-PCB,6*%
X121270000Y-46070000D03*
%TO.P,E-18-MS1-PCB,5*%
X121270000Y-44800000D03*
%TO.P,E-18-MS1-PCB,4*%
X121270000Y-43530000D03*
%TO.P,E-18-MS1-PCB,3*%
X121270000Y-42260000D03*
%TO.P,E-18-MS1-PCB,2*%
X121270000Y-40990000D03*
%TO.P,E-18-MS1-PCB,1*%
X121270000Y-39720000D03*
D12*
%TO.P,E-18-MS1-PCB,16*%
X132700000Y-50870000D03*
%TO.P,E-18-MS1-PCB,15*%
X131430000Y-50870000D03*
%TO.P,E-18-MS1-PCB,14*%
X130160000Y-50870000D03*
%TO.P,E-18-MS1-PCB,13*%
X128890000Y-50870000D03*
%TO.P,E-18-MS1-PCB,12*%
X127620000Y-50870000D03*
%TO.P,E-18-MS1-PCB,11*%
X126350000Y-50870000D03*
%TO.P,E-18-MS1-PCB,10*%
X125080000Y-50870000D03*
%TO.P,E-18-MS1-PCB,9*%
X123810000Y-50870000D03*
D11*
%TO.P,E-18-MS1-PCB,24*%
X135270000Y-39720000D03*
%TO.P,E-18-MS1-PCB,23*%
X135270000Y-40990000D03*
%TO.P,E-18-MS1-PCB,22*%
X135270000Y-42260000D03*
%TO.P,E-18-MS1-PCB,21*%
X135270000Y-43530000D03*
%TO.P,E-18-MS1-PCB,20*%
X135270000Y-44800000D03*
%TO.P,E-18-MS1-PCB,19*%
X135270000Y-46070000D03*
%TO.P,E-18-MS1-PCB,18*%
X135270000Y-47340000D03*
%TO.P,E-18-MS1-PCB,17*%
X135270000Y-48610000D03*
%TD*%
D13*
%TO.P, ,12*%
%TO.N,N/C*%
X116840000Y-35560000D03*
D10*
%TO.P, ,11*%
X116840000Y-38100000D03*
%TO.P, ,10*%
X116840000Y-40640000D03*
%TO.P, ,9*%
X116840000Y-43180000D03*
%TO.P, ,8*%
X116840000Y-45720000D03*
%TO.P, ,7*%
X116840000Y-48260000D03*
%TO.P, ,6*%
X116840000Y-50800000D03*
%TO.P, ,5*%
X116840000Y-53340000D03*
%TO.P, ,4*%
X116840000Y-55880000D03*
%TO.P, ,3*%
X116840000Y-58420000D03*
%TO.P, ,2*%
X116840000Y-60960000D03*
%TO.P, ,1*%
X116840000Y-63500000D03*
%TD*%
D14*
%TO.N,*%
X121270000Y-39720000D02*
X119730000Y-39720000D01*
X119730000Y-39720000D02*
X119380000Y-39370000D01*
X119380000Y-39370000D02*
X119380000Y-36830000D01*
X118110000Y-35560000D02*
X116840000Y-35560000D01*
X119380000Y-36830000D02*
X118110000Y-35560000D01*
X121270000Y-40990000D02*
X119730000Y-40990000D01*
X119730000Y-40990000D02*
X118745000Y-40005000D01*
X118745000Y-40005000D02*
X118745000Y-38735000D01*
X118110000Y-38100000D02*
X116840000Y-38100000D01*
X118745000Y-38735000D02*
X118110000Y-38100000D01*
X118460000Y-42260000D02*
X116840000Y-40640000D01*
X121270000Y-42260000D02*
X118460000Y-42260000D01*
X117760000Y-44800000D02*
X116840000Y-45720000D01*
X121270000Y-44800000D02*
X117760000Y-44800000D01*
X119030000Y-46070000D02*
X116840000Y-48260000D01*
X121270000Y-46070000D02*
X119030000Y-46070000D01*
X139700000Y-35560000D02*
X138430000Y-35560000D01*
X138430000Y-35560000D02*
X137160000Y-36830000D01*
X137160000Y-36830000D02*
X137160000Y-39370000D01*
X135270000Y-39720000D02*
X136810000Y-39720000D01*
X136810000Y-39720000D02*
X137160000Y-39370000D01*
X135270000Y-40990000D02*
X136810000Y-40990000D01*
X136810000Y-40990000D02*
X137795000Y-40005000D01*
X137795000Y-40005000D02*
X137795000Y-38735000D01*
X137795000Y-38735000D02*
X138430000Y-38100000D01*
X138430000Y-38100000D02*
X139700000Y-38100000D01*
X138080000Y-42260000D02*
X139700000Y-40640000D01*
X135270000Y-42260000D02*
X138080000Y-42260000D01*
X121270000Y-43530000D02*
X119095000Y-43530000D01*
X118745000Y-43180000D02*
X116840000Y-43180000D01*
X119095000Y-43530000D02*
X118745000Y-43180000D01*
X135270000Y-43530000D02*
X137445000Y-43530000D01*
X137795000Y-43180000D02*
X139700000Y-43180000D01*
X137445000Y-43530000D02*
X137795000Y-43180000D01*
X138780000Y-44800000D02*
X139700000Y-45720000D01*
X135270000Y-44800000D02*
X138780000Y-44800000D01*
X137510000Y-46070000D02*
X139700000Y-48260000D01*
X135270000Y-46070000D02*
X137510000Y-46070000D01*
X121270000Y-47340000D02*
X119030000Y-47340000D01*
X119030000Y-47340000D02*
X118745000Y-47625000D01*
X118745000Y-47625000D02*
X118745000Y-50165000D01*
X118110000Y-50800000D02*
X116840000Y-50800000D01*
X118745000Y-50165000D02*
X118110000Y-50800000D01*
X135270000Y-47340000D02*
X137510000Y-47340000D01*
X137510000Y-47340000D02*
X137795000Y-47625000D01*
X137795000Y-47625000D02*
X137795000Y-50165000D01*
X138430000Y-50800000D02*
X139700000Y-50800000D01*
X137795000Y-50165000D02*
X138430000Y-50800000D01*
X135270000Y-48610000D02*
X136875000Y-48610000D01*
X136875000Y-48610000D02*
X137160000Y-48895000D01*
X137160000Y-50800000D02*
X139700000Y-53340000D01*
X137160000Y-48895000D02*
X137160000Y-50800000D01*
X121270000Y-48610000D02*
X119665000Y-48610000D01*
X119665000Y-48610000D02*
X119380000Y-48895000D01*
X119380000Y-50800000D02*
X116840000Y-53340000D01*
X119380000Y-48895000D02*
X119380000Y-50800000D01*
X123810000Y-50870000D02*
X123810000Y-53990000D01*
X121920000Y-55880000D02*
X116840000Y-55880000D01*
X123810000Y-53990000D02*
X121920000Y-55880000D01*
X125080000Y-50870000D02*
X125080000Y-55260000D01*
X121920000Y-58420000D02*
X116840000Y-58420000D01*
X125080000Y-55260000D02*
X121920000Y-58420000D01*
X126350000Y-50870000D02*
X126350000Y-56530000D01*
X121920000Y-60960000D02*
X116840000Y-60960000D01*
X126350000Y-56530000D02*
X121920000Y-60960000D01*
X127620000Y-50870000D02*
X127620000Y-57800000D01*
X121920000Y-63500000D02*
X116840000Y-63500000D01*
X127620000Y-57800000D02*
X121920000Y-63500000D01*
X132700000Y-50870000D02*
X132700000Y-53960000D01*
X134620000Y-55880000D02*
X139700000Y-55880000D01*
X132700000Y-53960000D02*
X134620000Y-55880000D01*
X131430000Y-50870000D02*
X131430000Y-55230000D01*
X134620000Y-58420000D02*
X139700000Y-58420000D01*
X131430000Y-55230000D02*
X134620000Y-58420000D01*
X130160000Y-50870000D02*
X130160000Y-56500000D01*
X134620000Y-60960000D02*
X139700000Y-60960000D01*
X130160000Y-56500000D02*
X134620000Y-60960000D01*
X128890000Y-50870000D02*
X128890000Y-57770000D01*
X134620000Y-63500000D02*
X139700000Y-63500000D01*
X128890000Y-57770000D02*
X134620000Y-63500000D01*
%TD*%
M02*
