%TF.GenerationSoftware,KiCad,Pcbnew,(5.1.9)-1*%
%TF.CreationDate,2021-12-13T23:40:31+01:00*%
%TF.ProjectId,e18sock,65313873-6f63-46b2-9e6b-696361645f70,rev?*%
%TF.SameCoordinates,Original*%
%TF.FileFunction,Other,Comment*%
%FSLAX46Y46*%
G04 Gerber Fmt 4.6, Leading zero omitted, Abs format (unit mm)*
G04 Created by KiCad (PCBNEW (5.1.9)-1) date 2021-12-13 23:40:31*
%MOMM*%
%LPD*%
G01*
G04 APERTURE LIST*
%ADD10C,0.060000*%
%ADD11C,0.150000*%
G04 APERTURE END LIST*
%TO.C,E-18-MS1-PCB*%
D10*
X125660476Y-32550952D02*
X125622380Y-32531904D01*
X125603333Y-32512857D01*
X125584285Y-32474761D01*
X125584285Y-32360476D01*
X125603333Y-32322380D01*
X125622380Y-32303333D01*
X125660476Y-32284285D01*
X125717619Y-32284285D01*
X125755714Y-32303333D01*
X125774761Y-32322380D01*
X125793809Y-32360476D01*
X125793809Y-32474761D01*
X125774761Y-32512857D01*
X125755714Y-32531904D01*
X125717619Y-32550952D01*
X125660476Y-32550952D01*
X125965238Y-32284285D02*
X125965238Y-32550952D01*
X125965238Y-32322380D02*
X125984285Y-32303333D01*
X126022380Y-32284285D01*
X126079523Y-32284285D01*
X126117619Y-32303333D01*
X126136666Y-32341428D01*
X126136666Y-32550952D01*
X126803333Y-32550952D02*
X126803333Y-32341428D01*
X126784285Y-32303333D01*
X126746190Y-32284285D01*
X126670000Y-32284285D01*
X126631904Y-32303333D01*
X126803333Y-32531904D02*
X126765238Y-32550952D01*
X126670000Y-32550952D01*
X126631904Y-32531904D01*
X126612857Y-32493809D01*
X126612857Y-32455714D01*
X126631904Y-32417619D01*
X126670000Y-32398571D01*
X126765238Y-32398571D01*
X126803333Y-32379523D01*
X126993809Y-32284285D02*
X126993809Y-32550952D01*
X126993809Y-32322380D02*
X127012857Y-32303333D01*
X127050952Y-32284285D01*
X127108095Y-32284285D01*
X127146190Y-32303333D01*
X127165238Y-32341428D01*
X127165238Y-32550952D01*
X127317619Y-32284285D02*
X127412857Y-32550952D01*
X127508095Y-32284285D02*
X127412857Y-32550952D01*
X127374761Y-32646190D01*
X127355714Y-32665238D01*
X127317619Y-32684285D01*
X127965238Y-32550952D02*
X127965238Y-32150952D01*
X128117619Y-32150952D01*
X128155714Y-32170000D01*
X128174761Y-32189047D01*
X128193809Y-32227142D01*
X128193809Y-32284285D01*
X128174761Y-32322380D01*
X128155714Y-32341428D01*
X128117619Y-32360476D01*
X127965238Y-32360476D01*
X128593809Y-32512857D02*
X128574761Y-32531904D01*
X128517619Y-32550952D01*
X128479523Y-32550952D01*
X128422380Y-32531904D01*
X128384285Y-32493809D01*
X128365238Y-32455714D01*
X128346190Y-32379523D01*
X128346190Y-32322380D01*
X128365238Y-32246190D01*
X128384285Y-32208095D01*
X128422380Y-32170000D01*
X128479523Y-32150952D01*
X128517619Y-32150952D01*
X128574761Y-32170000D01*
X128593809Y-32189047D01*
X128898571Y-32341428D02*
X128955714Y-32360476D01*
X128974761Y-32379523D01*
X128993809Y-32417619D01*
X128993809Y-32474761D01*
X128974761Y-32512857D01*
X128955714Y-32531904D01*
X128917619Y-32550952D01*
X128765238Y-32550952D01*
X128765238Y-32150952D01*
X128898571Y-32150952D01*
X128936666Y-32170000D01*
X128955714Y-32189047D01*
X128974761Y-32227142D01*
X128974761Y-32265238D01*
X128955714Y-32303333D01*
X128936666Y-32322380D01*
X128898571Y-32341428D01*
X128765238Y-32341428D01*
X129527142Y-32550952D02*
X129489047Y-32531904D01*
X129470000Y-32493809D01*
X129470000Y-32150952D01*
X129850952Y-32550952D02*
X129850952Y-32341428D01*
X129831904Y-32303333D01*
X129793809Y-32284285D01*
X129717619Y-32284285D01*
X129679523Y-32303333D01*
X129850952Y-32531904D02*
X129812857Y-32550952D01*
X129717619Y-32550952D01*
X129679523Y-32531904D01*
X129660476Y-32493809D01*
X129660476Y-32455714D01*
X129679523Y-32417619D01*
X129717619Y-32398571D01*
X129812857Y-32398571D01*
X129850952Y-32379523D01*
X130003333Y-32284285D02*
X130098571Y-32550952D01*
X130193809Y-32284285D02*
X130098571Y-32550952D01*
X130060476Y-32646190D01*
X130041428Y-32665238D01*
X130003333Y-32684285D01*
X130498571Y-32531904D02*
X130460476Y-32550952D01*
X130384285Y-32550952D01*
X130346190Y-32531904D01*
X130327142Y-32493809D01*
X130327142Y-32341428D01*
X130346190Y-32303333D01*
X130384285Y-32284285D01*
X130460476Y-32284285D01*
X130498571Y-32303333D01*
X130517619Y-32341428D01*
X130517619Y-32379523D01*
X130327142Y-32417619D01*
X130689047Y-32550952D02*
X130689047Y-32284285D01*
X130689047Y-32360476D02*
X130708095Y-32322380D01*
X130727142Y-32303333D01*
X130765238Y-32284285D01*
X130803333Y-32284285D01*
X130936666Y-32512857D02*
X130955714Y-32531904D01*
X130936666Y-32550952D01*
X130917619Y-32531904D01*
X130936666Y-32512857D01*
X130936666Y-32550952D01*
X123317619Y-31550952D02*
X123317619Y-31150952D01*
X123546190Y-31550952D01*
X123546190Y-31150952D01*
X123793809Y-31550952D02*
X123755714Y-31531904D01*
X123736666Y-31512857D01*
X123717619Y-31474761D01*
X123717619Y-31360476D01*
X123736666Y-31322380D01*
X123755714Y-31303333D01*
X123793809Y-31284285D01*
X123850952Y-31284285D01*
X123889047Y-31303333D01*
X123908095Y-31322380D01*
X123927142Y-31360476D01*
X123927142Y-31474761D01*
X123908095Y-31512857D01*
X123889047Y-31531904D01*
X123850952Y-31550952D01*
X123793809Y-31550952D01*
X124403333Y-31550952D02*
X124403333Y-31284285D01*
X124403333Y-31322380D02*
X124422380Y-31303333D01*
X124460476Y-31284285D01*
X124517619Y-31284285D01*
X124555714Y-31303333D01*
X124574761Y-31341428D01*
X124574761Y-31550952D01*
X124574761Y-31341428D02*
X124593809Y-31303333D01*
X124631904Y-31284285D01*
X124689047Y-31284285D01*
X124727142Y-31303333D01*
X124746190Y-31341428D01*
X124746190Y-31550952D01*
X125089047Y-31531904D02*
X125050952Y-31550952D01*
X124974761Y-31550952D01*
X124936666Y-31531904D01*
X124917619Y-31493809D01*
X124917619Y-31341428D01*
X124936666Y-31303333D01*
X124974761Y-31284285D01*
X125050952Y-31284285D01*
X125089047Y-31303333D01*
X125108095Y-31341428D01*
X125108095Y-31379523D01*
X124917619Y-31417619D01*
X125222380Y-31284285D02*
X125374761Y-31284285D01*
X125279523Y-31150952D02*
X125279523Y-31493809D01*
X125298571Y-31531904D01*
X125336666Y-31550952D01*
X125374761Y-31550952D01*
X125679523Y-31550952D02*
X125679523Y-31341428D01*
X125660476Y-31303333D01*
X125622380Y-31284285D01*
X125546190Y-31284285D01*
X125508095Y-31303333D01*
X125679523Y-31531904D02*
X125641428Y-31550952D01*
X125546190Y-31550952D01*
X125508095Y-31531904D01*
X125489047Y-31493809D01*
X125489047Y-31455714D01*
X125508095Y-31417619D01*
X125546190Y-31398571D01*
X125641428Y-31398571D01*
X125679523Y-31379523D01*
X125927142Y-31550952D02*
X125889047Y-31531904D01*
X125870000Y-31493809D01*
X125870000Y-31150952D01*
X126098571Y-31531904D02*
X126098571Y-31550952D01*
X126079523Y-31589047D01*
X126060476Y-31608095D01*
X126517619Y-31284285D02*
X126670000Y-31284285D01*
X126574761Y-31150952D02*
X126574761Y-31493809D01*
X126593809Y-31531904D01*
X126631904Y-31550952D01*
X126670000Y-31550952D01*
X126803333Y-31550952D02*
X126803333Y-31284285D01*
X126803333Y-31360476D02*
X126822380Y-31322380D01*
X126841428Y-31303333D01*
X126879523Y-31284285D01*
X126917619Y-31284285D01*
X127222380Y-31550952D02*
X127222380Y-31341428D01*
X127203333Y-31303333D01*
X127165238Y-31284285D01*
X127089047Y-31284285D01*
X127050952Y-31303333D01*
X127222380Y-31531904D02*
X127184285Y-31550952D01*
X127089047Y-31550952D01*
X127050952Y-31531904D01*
X127031904Y-31493809D01*
X127031904Y-31455714D01*
X127050952Y-31417619D01*
X127089047Y-31398571D01*
X127184285Y-31398571D01*
X127222380Y-31379523D01*
X127584285Y-31531904D02*
X127546190Y-31550952D01*
X127470000Y-31550952D01*
X127431904Y-31531904D01*
X127412857Y-31512857D01*
X127393809Y-31474761D01*
X127393809Y-31360476D01*
X127412857Y-31322380D01*
X127431904Y-31303333D01*
X127470000Y-31284285D01*
X127546190Y-31284285D01*
X127584285Y-31303333D01*
X127908095Y-31531904D02*
X127870000Y-31550952D01*
X127793809Y-31550952D01*
X127755714Y-31531904D01*
X127736666Y-31493809D01*
X127736666Y-31341428D01*
X127755714Y-31303333D01*
X127793809Y-31284285D01*
X127870000Y-31284285D01*
X127908095Y-31303333D01*
X127927142Y-31341428D01*
X127927142Y-31379523D01*
X127736666Y-31417619D01*
X128079523Y-31531904D02*
X128117619Y-31550952D01*
X128193809Y-31550952D01*
X128231904Y-31531904D01*
X128250952Y-31493809D01*
X128250952Y-31474761D01*
X128231904Y-31436666D01*
X128193809Y-31417619D01*
X128136666Y-31417619D01*
X128098571Y-31398571D01*
X128079523Y-31360476D01*
X128079523Y-31341428D01*
X128098571Y-31303333D01*
X128136666Y-31284285D01*
X128193809Y-31284285D01*
X128231904Y-31303333D01*
X128441428Y-31531904D02*
X128441428Y-31550952D01*
X128422380Y-31589047D01*
X128403333Y-31608095D01*
X128974761Y-31550952D02*
X128936666Y-31531904D01*
X128917619Y-31512857D01*
X128898571Y-31474761D01*
X128898571Y-31360476D01*
X128917619Y-31322380D01*
X128936666Y-31303333D01*
X128974761Y-31284285D01*
X129031904Y-31284285D01*
X129070000Y-31303333D01*
X129089047Y-31322380D01*
X129108095Y-31360476D01*
X129108095Y-31474761D01*
X129089047Y-31512857D01*
X129070000Y-31531904D01*
X129031904Y-31550952D01*
X128974761Y-31550952D01*
X129279523Y-31550952D02*
X129279523Y-31284285D01*
X129279523Y-31360476D02*
X129298571Y-31322380D01*
X129317619Y-31303333D01*
X129355714Y-31284285D01*
X129393809Y-31284285D01*
X130003333Y-31531904D02*
X129965238Y-31550952D01*
X129889047Y-31550952D01*
X129850952Y-31531904D01*
X129831904Y-31512857D01*
X129812857Y-31474761D01*
X129812857Y-31360476D01*
X129831904Y-31322380D01*
X129850952Y-31303333D01*
X129889047Y-31284285D01*
X129965238Y-31284285D01*
X130003333Y-31303333D01*
X130231904Y-31550952D02*
X130193809Y-31531904D01*
X130174761Y-31512857D01*
X130155714Y-31474761D01*
X130155714Y-31360476D01*
X130174761Y-31322380D01*
X130193809Y-31303333D01*
X130231904Y-31284285D01*
X130289047Y-31284285D01*
X130327142Y-31303333D01*
X130346190Y-31322380D01*
X130365238Y-31360476D01*
X130365238Y-31474761D01*
X130346190Y-31512857D01*
X130327142Y-31531904D01*
X130289047Y-31550952D01*
X130231904Y-31550952D01*
X130536666Y-31550952D02*
X130536666Y-31284285D01*
X130536666Y-31322380D02*
X130555714Y-31303333D01*
X130593809Y-31284285D01*
X130650952Y-31284285D01*
X130689047Y-31303333D01*
X130708095Y-31341428D01*
X130708095Y-31550952D01*
X130708095Y-31341428D02*
X130727142Y-31303333D01*
X130765238Y-31284285D01*
X130822380Y-31284285D01*
X130860476Y-31303333D01*
X130879523Y-31341428D01*
X130879523Y-31550952D01*
X131070000Y-31284285D02*
X131070000Y-31684285D01*
X131070000Y-31303333D02*
X131108095Y-31284285D01*
X131184285Y-31284285D01*
X131222380Y-31303333D01*
X131241428Y-31322380D01*
X131260476Y-31360476D01*
X131260476Y-31474761D01*
X131241428Y-31512857D01*
X131222380Y-31531904D01*
X131184285Y-31550952D01*
X131108095Y-31550952D01*
X131070000Y-31531904D01*
X131489047Y-31550952D02*
X131450952Y-31531904D01*
X131431904Y-31512857D01*
X131412857Y-31474761D01*
X131412857Y-31360476D01*
X131431904Y-31322380D01*
X131450952Y-31303333D01*
X131489047Y-31284285D01*
X131546190Y-31284285D01*
X131584285Y-31303333D01*
X131603333Y-31322380D01*
X131622380Y-31360476D01*
X131622380Y-31474761D01*
X131603333Y-31512857D01*
X131584285Y-31531904D01*
X131546190Y-31550952D01*
X131489047Y-31550952D01*
X131793809Y-31284285D02*
X131793809Y-31550952D01*
X131793809Y-31322380D02*
X131812857Y-31303333D01*
X131850952Y-31284285D01*
X131908095Y-31284285D01*
X131946190Y-31303333D01*
X131965238Y-31341428D01*
X131965238Y-31550952D01*
X132308095Y-31531904D02*
X132270000Y-31550952D01*
X132193809Y-31550952D01*
X132155714Y-31531904D01*
X132136666Y-31493809D01*
X132136666Y-31341428D01*
X132155714Y-31303333D01*
X132193809Y-31284285D01*
X132270000Y-31284285D01*
X132308095Y-31303333D01*
X132327142Y-31341428D01*
X132327142Y-31379523D01*
X132136666Y-31417619D01*
X132498571Y-31284285D02*
X132498571Y-31550952D01*
X132498571Y-31322380D02*
X132517619Y-31303333D01*
X132555714Y-31284285D01*
X132612857Y-31284285D01*
X132650952Y-31303333D01*
X132670000Y-31341428D01*
X132670000Y-31550952D01*
X132803333Y-31284285D02*
X132955714Y-31284285D01*
X132860476Y-31150952D02*
X132860476Y-31493809D01*
X132879523Y-31531904D01*
X132917619Y-31550952D01*
X132955714Y-31550952D01*
X133070000Y-31531904D02*
X133108095Y-31550952D01*
X133184285Y-31550952D01*
X133222380Y-31531904D01*
X133241428Y-31493809D01*
X133241428Y-31474761D01*
X133222380Y-31436666D01*
X133184285Y-31417619D01*
X133127142Y-31417619D01*
X133089047Y-31398571D01*
X133070000Y-31360476D01*
X133070000Y-31341428D01*
X133089047Y-31303333D01*
X133127142Y-31284285D01*
X133184285Y-31284285D01*
X133222380Y-31303333D01*
D11*
X122198571Y-29822380D02*
X122198571Y-28822380D01*
X122770000Y-29822380D02*
X122341428Y-29250952D01*
X122770000Y-28822380D02*
X122198571Y-29393809D01*
X123198571Y-29298571D02*
X123531904Y-29298571D01*
X123674761Y-29822380D02*
X123198571Y-29822380D01*
X123198571Y-28822380D01*
X123674761Y-28822380D01*
X124103333Y-29298571D02*
X124436666Y-29298571D01*
X124579523Y-29822380D02*
X124103333Y-29822380D01*
X124103333Y-28822380D01*
X124579523Y-28822380D01*
X125008095Y-29822380D02*
X125008095Y-28822380D01*
X125389047Y-28822380D01*
X125484285Y-28870000D01*
X125531904Y-28917619D01*
X125579523Y-29012857D01*
X125579523Y-29155714D01*
X125531904Y-29250952D01*
X125484285Y-29298571D01*
X125389047Y-29346190D01*
X125008095Y-29346190D01*
X126008095Y-29441428D02*
X126770000Y-29441428D01*
X127436666Y-28822380D02*
X127627142Y-28822380D01*
X127722380Y-28870000D01*
X127817619Y-28965238D01*
X127865238Y-29155714D01*
X127865238Y-29489047D01*
X127817619Y-29679523D01*
X127722380Y-29774761D01*
X127627142Y-29822380D01*
X127436666Y-29822380D01*
X127341428Y-29774761D01*
X127246190Y-29679523D01*
X127198571Y-29489047D01*
X127198571Y-29155714D01*
X127246190Y-28965238D01*
X127341428Y-28870000D01*
X127436666Y-28822380D01*
X128293809Y-28822380D02*
X128293809Y-29631904D01*
X128341428Y-29727142D01*
X128389047Y-29774761D01*
X128484285Y-29822380D01*
X128674761Y-29822380D01*
X128770000Y-29774761D01*
X128817619Y-29727142D01*
X128865238Y-29631904D01*
X128865238Y-28822380D01*
X129198571Y-28822380D02*
X129770000Y-28822380D01*
X129484285Y-29822380D02*
X129484285Y-28822380D01*
X130770000Y-28822380D02*
X131436666Y-28822380D01*
X130770000Y-29822380D01*
X131436666Y-29822380D01*
X132008095Y-28822380D02*
X132198571Y-28822380D01*
X132293809Y-28870000D01*
X132389047Y-28965238D01*
X132436666Y-29155714D01*
X132436666Y-29489047D01*
X132389047Y-29679523D01*
X132293809Y-29774761D01*
X132198571Y-29822380D01*
X132008095Y-29822380D01*
X131912857Y-29774761D01*
X131817619Y-29679523D01*
X131770000Y-29489047D01*
X131770000Y-29155714D01*
X131817619Y-28965238D01*
X131912857Y-28870000D01*
X132008095Y-28822380D01*
X132865238Y-29822380D02*
X132865238Y-28822380D01*
X133436666Y-29822380D01*
X133436666Y-28822380D01*
X133912857Y-29298571D02*
X134246190Y-29298571D01*
X134389047Y-29822380D02*
X133912857Y-29822380D01*
X133912857Y-28822380D01*
X134389047Y-28822380D01*
%TD*%
M02*
